<mxfile host="app.diagrams.net" agent="Mozilla/5.0 (Windows NT 10.0; Win64; x64) AppleWebKit/537.36 (KHTML, like Gecko) Chrome/130.0.0.0 Safari/537.36" version="25.0.3">
  <diagram name="Page-1" id="rR3mraTUPilOpKzA0PKT">
    <mxGraphModel grid="1" page="1" gridSize="12" guides="1" tooltips="1" connect="1" arrows="1" fold="1" pageScale="1" pageWidth="827" pageHeight="1169" math="0" shadow="0">
      <root>
        <mxCell id="0" />
        <mxCell id="1" parent="0" />
        <mxCell id="RdZ9UsvRlXB1wPnLyiBJ-5" value="" style="edgeStyle=orthogonalEdgeStyle;rounded=0;orthogonalLoop=1;jettySize=auto;html=1;" edge="1" parent="1" source="RdZ9UsvRlXB1wPnLyiBJ-1" target="RdZ9UsvRlXB1wPnLyiBJ-3">
          <mxGeometry relative="1" as="geometry" />
        </mxCell>
        <mxCell id="RdZ9UsvRlXB1wPnLyiBJ-1" value="" style="ellipse;whiteSpace=wrap;html=1;" vertex="1" parent="1">
          <mxGeometry x="72" y="12" width="120" height="80" as="geometry" />
        </mxCell>
        <mxCell id="RdZ9UsvRlXB1wPnLyiBJ-7" value="" style="edgeStyle=orthogonalEdgeStyle;rounded=0;orthogonalLoop=1;jettySize=auto;html=1;" edge="1" parent="1" source="RdZ9UsvRlXB1wPnLyiBJ-2" target="RdZ9UsvRlXB1wPnLyiBJ-6">
          <mxGeometry relative="1" as="geometry" />
        </mxCell>
        <mxCell id="RdZ9UsvRlXB1wPnLyiBJ-2" value="" style="shape=parallelogram;perimeter=parallelogramPerimeter;whiteSpace=wrap;html=1;fixedSize=1;" vertex="1" parent="1">
          <mxGeometry x="72" y="156" width="120" height="60" as="geometry" />
        </mxCell>
        <mxCell id="RdZ9UsvRlXB1wPnLyiBJ-3" value="nhập a,b" style="text;html=1;align=center;verticalAlign=middle;whiteSpace=wrap;rounded=0;" vertex="1" parent="1">
          <mxGeometry x="102" y="171" width="60" height="30" as="geometry" />
        </mxCell>
        <mxCell id="RdZ9UsvRlXB1wPnLyiBJ-4" value="start" style="text;html=1;align=center;verticalAlign=middle;whiteSpace=wrap;rounded=0;" vertex="1" parent="1">
          <mxGeometry x="102" y="37" width="60" height="30" as="geometry" />
        </mxCell>
        <mxCell id="RdZ9UsvRlXB1wPnLyiBJ-10" value="" style="edgeStyle=orthogonalEdgeStyle;rounded=0;orthogonalLoop=1;jettySize=auto;html=1;" edge="1" parent="1" source="RdZ9UsvRlXB1wPnLyiBJ-6" target="RdZ9UsvRlXB1wPnLyiBJ-9">
          <mxGeometry relative="1" as="geometry" />
        </mxCell>
        <mxCell id="RdZ9UsvRlXB1wPnLyiBJ-15" value="" style="edgeStyle=orthogonalEdgeStyle;rounded=0;orthogonalLoop=1;jettySize=auto;html=1;" edge="1" parent="1" source="RdZ9UsvRlXB1wPnLyiBJ-6" target="RdZ9UsvRlXB1wPnLyiBJ-14">
          <mxGeometry relative="1" as="geometry" />
        </mxCell>
        <mxCell id="RdZ9UsvRlXB1wPnLyiBJ-6" value="" style="rhombus;whiteSpace=wrap;html=1;" vertex="1" parent="1">
          <mxGeometry x="70" y="300" width="124" height="80" as="geometry" />
        </mxCell>
        <mxCell id="RdZ9UsvRlXB1wPnLyiBJ-8" value="a =0 and b!=0" style="text;html=1;align=center;verticalAlign=middle;whiteSpace=wrap;rounded=0;" vertex="1" parent="1">
          <mxGeometry x="93" y="325" width="78" height="30" as="geometry" />
        </mxCell>
        <mxCell id="RdZ9UsvRlXB1wPnLyiBJ-36" style="edgeStyle=orthogonalEdgeStyle;rounded=0;orthogonalLoop=1;jettySize=auto;html=1;exitX=1;exitY=0.5;exitDx=0;exitDy=0;" edge="1" parent="1" source="RdZ9UsvRlXB1wPnLyiBJ-9">
          <mxGeometry relative="1" as="geometry">
            <mxPoint x="528" y="456" as="targetPoint" />
          </mxGeometry>
        </mxCell>
        <mxCell id="RdZ9UsvRlXB1wPnLyiBJ-9" value="" style="rounded=1;whiteSpace=wrap;html=1;" vertex="1" parent="1">
          <mxGeometry x="276" y="310" width="120" height="60" as="geometry" />
        </mxCell>
        <mxCell id="RdZ9UsvRlXB1wPnLyiBJ-12" value="PT vô nghiệm" style="text;html=1;align=center;verticalAlign=middle;whiteSpace=wrap;rounded=0;" vertex="1" parent="1">
          <mxGeometry x="297" y="325" width="78" height="30" as="geometry" />
        </mxCell>
        <mxCell id="RdZ9UsvRlXB1wPnLyiBJ-20" value="" style="edgeStyle=orthogonalEdgeStyle;rounded=0;orthogonalLoop=1;jettySize=auto;html=1;" edge="1" parent="1" source="RdZ9UsvRlXB1wPnLyiBJ-14" target="RdZ9UsvRlXB1wPnLyiBJ-19">
          <mxGeometry relative="1" as="geometry" />
        </mxCell>
        <mxCell id="RdZ9UsvRlXB1wPnLyiBJ-23" value="" style="edgeStyle=orthogonalEdgeStyle;rounded=0;orthogonalLoop=1;jettySize=auto;html=1;" edge="1" parent="1" source="RdZ9UsvRlXB1wPnLyiBJ-14" target="RdZ9UsvRlXB1wPnLyiBJ-22">
          <mxGeometry relative="1" as="geometry" />
        </mxCell>
        <mxCell id="RdZ9UsvRlXB1wPnLyiBJ-14" value="" style="rhombus;whiteSpace=wrap;html=1;" vertex="1" parent="1">
          <mxGeometry x="70" y="460" width="124" height="80" as="geometry" />
        </mxCell>
        <mxCell id="RdZ9UsvRlXB1wPnLyiBJ-16" value="a=0 and b=0" style="text;html=1;align=center;verticalAlign=middle;whiteSpace=wrap;rounded=0;" vertex="1" parent="1">
          <mxGeometry x="93" y="485" width="78" height="30" as="geometry" />
        </mxCell>
        <mxCell id="RdZ9UsvRlXB1wPnLyiBJ-37" style="edgeStyle=orthogonalEdgeStyle;rounded=0;orthogonalLoop=1;jettySize=auto;html=1;exitX=1;exitY=0.5;exitDx=0;exitDy=0;" edge="1" parent="1" source="RdZ9UsvRlXB1wPnLyiBJ-19" target="RdZ9UsvRlXB1wPnLyiBJ-35">
          <mxGeometry relative="1" as="geometry" />
        </mxCell>
        <mxCell id="RdZ9UsvRlXB1wPnLyiBJ-19" value="" style="rounded=1;whiteSpace=wrap;html=1;" vertex="1" parent="1">
          <mxGeometry x="276" y="470" width="120" height="60" as="geometry" />
        </mxCell>
        <mxCell id="RdZ9UsvRlXB1wPnLyiBJ-21" value="PT vô số nghiệm" style="text;html=1;align=center;verticalAlign=middle;whiteSpace=wrap;rounded=0;" vertex="1" parent="1">
          <mxGeometry x="306" y="485" width="60" height="30" as="geometry" />
        </mxCell>
        <mxCell id="RdZ9UsvRlXB1wPnLyiBJ-22" value="" style="rhombus;whiteSpace=wrap;html=1;" vertex="1" parent="1">
          <mxGeometry x="60" y="612" width="144" height="80" as="geometry" />
        </mxCell>
        <mxCell id="RdZ9UsvRlXB1wPnLyiBJ-26" value="" style="edgeStyle=orthogonalEdgeStyle;rounded=0;orthogonalLoop=1;jettySize=auto;html=1;" edge="1" parent="1" source="RdZ9UsvRlXB1wPnLyiBJ-24">
          <mxGeometry relative="1" as="geometry">
            <mxPoint x="275.9999999999999" y="652" as="targetPoint" />
          </mxGeometry>
        </mxCell>
        <mxCell id="RdZ9UsvRlXB1wPnLyiBJ-24" value="a!=0 and b!=0" style="text;html=1;align=center;verticalAlign=middle;whiteSpace=wrap;rounded=0;" vertex="1" parent="1">
          <mxGeometry x="96" y="637" width="72" height="30" as="geometry" />
        </mxCell>
        <mxCell id="RdZ9UsvRlXB1wPnLyiBJ-38" style="edgeStyle=orthogonalEdgeStyle;rounded=0;orthogonalLoop=1;jettySize=auto;html=1;exitX=1;exitY=0.5;exitDx=0;exitDy=0;entryX=0.5;entryY=1;entryDx=0;entryDy=0;" edge="1" parent="1" source="RdZ9UsvRlXB1wPnLyiBJ-28" target="RdZ9UsvRlXB1wPnLyiBJ-35">
          <mxGeometry relative="1" as="geometry">
            <mxPoint x="528" y="651.8823529411766" as="targetPoint" />
          </mxGeometry>
        </mxCell>
        <mxCell id="RdZ9UsvRlXB1wPnLyiBJ-28" value="" style="rounded=0;whiteSpace=wrap;html=1;" vertex="1" parent="1">
          <mxGeometry x="276" y="622" width="120" height="60" as="geometry" />
        </mxCell>
        <mxCell id="RdZ9UsvRlXB1wPnLyiBJ-29" value="-b/a" style="text;html=1;align=center;verticalAlign=middle;whiteSpace=wrap;rounded=0;" vertex="1" parent="1">
          <mxGeometry x="306" y="638" width="60" height="30" as="geometry" />
        </mxCell>
        <mxCell id="RdZ9UsvRlXB1wPnLyiBJ-30" value="true" style="text;html=1;align=center;verticalAlign=middle;whiteSpace=wrap;rounded=0;" vertex="1" parent="1">
          <mxGeometry x="204" y="296" width="60" height="30" as="geometry" />
        </mxCell>
        <mxCell id="RdZ9UsvRlXB1wPnLyiBJ-31" value="false" style="text;html=1;align=center;verticalAlign=middle;whiteSpace=wrap;rounded=0;rotation=90;" vertex="1" parent="1">
          <mxGeometry x="144" y="396" width="60" height="30" as="geometry" />
        </mxCell>
        <mxCell id="RdZ9UsvRlXB1wPnLyiBJ-32" value="true" style="text;html=1;align=center;verticalAlign=middle;whiteSpace=wrap;rounded=0;" vertex="1" parent="1">
          <mxGeometry x="204" y="470" width="60" height="30" as="geometry" />
        </mxCell>
        <mxCell id="RdZ9UsvRlXB1wPnLyiBJ-33" value="false" style="text;html=1;align=center;verticalAlign=middle;whiteSpace=wrap;rounded=0;rotation=90;" vertex="1" parent="1">
          <mxGeometry x="144" y="555" width="60" height="30" as="geometry" />
        </mxCell>
        <mxCell id="RdZ9UsvRlXB1wPnLyiBJ-34" value="true" style="text;html=1;align=center;verticalAlign=middle;whiteSpace=wrap;rounded=0;" vertex="1" parent="1">
          <mxGeometry x="204" y="622" width="60" height="30" as="geometry" />
        </mxCell>
        <mxCell id="RdZ9UsvRlXB1wPnLyiBJ-35" value="" style="ellipse;whiteSpace=wrap;html=1;" vertex="1" parent="1">
          <mxGeometry x="468" y="460" width="120" height="80" as="geometry" />
        </mxCell>
        <mxCell id="RdZ9UsvRlXB1wPnLyiBJ-39" value="end" style="text;html=1;align=center;verticalAlign=middle;whiteSpace=wrap;rounded=0;" vertex="1" parent="1">
          <mxGeometry x="498" y="486" width="60" height="30" as="geometry" />
        </mxCell>
      </root>
    </mxGraphModel>
  </diagram>
</mxfile>
